# xmcd
#
# Track frame offsets: 
#        150
#        22538
#        52053
#        70218
#        91254
#        115457
#        132422
#        155659
#
# Disc length: 2585 seconds
#
# Revision: 0
# Processed by: cddbd v1.5.2PL0 Copyright (c) Steve Scherf et al.
# Submitted via: ExactAudioCopy v1.3
#
DISCID=670a1708
DTITLE=Brilleaux - Eight-Track Style
DYEAR=1900
DGENRE=Blues
TTITLE0=Get Over Yourself
TTITLE1=I am
TTITLE2=Bundle of Joy
TTITLE3=Beat the Bastards Back
TTITLE4=Youre Going Home (In an Ambulance)
TTITLE5=Hit Man
TTITLE6=Roadtest Ronnie
TTITLE7=POD (Till you Drop)
EXTD=
EXTT0=
EXTT1=
EXTT2=
EXTT3=
EXTT4=
EXTT5=
EXTT6=
EXTT7=
PLAYORDER=
